<svg width="217" height="46" viewBox="0 0 217 46" fill="none" xmlns="http://www.w3.org/2000/svg">
<path d="M22.9997 0C35.7026 0 45.9997 10.2971 45.9997 23V39.1C45.9997 40.93 45.2728 42.685 43.9788 43.979C42.6848 45.273 40.9297 46 39.0997 46H24.1497V35.9099C24.1497 33.6076 24.29 31.2225 25.4975 29.2629C26.362 27.8586 27.5185 26.6566 28.8884 25.7385C30.2583 24.8204 31.8096 24.2077 33.4371 23.9419L33.8776 23.8706C34.0592 23.8085 34.2168 23.6912 34.3284 23.5351C34.44 23.379 34.5 23.1919 34.5 23C34.5 22.8081 34.44 22.621 34.3284 22.4649C34.2168 22.3088 34.0592 22.1915 33.8776 22.1294L33.4371 22.0581C31.0591 21.6697 28.8632 20.5441 27.1594 18.8403C25.4556 17.1365 24.3301 14.9406 23.9416 12.5626L23.8703 12.1222C23.8082 11.9406 23.6909 11.7829 23.5348 11.6713C23.3787 11.5597 23.1916 11.4997 22.9997 11.4997C22.8078 11.4997 22.6208 11.5597 22.4647 11.6713C22.3086 11.7829 22.1913 11.9406 22.1292 12.1222L22.0579 12.5626C21.7922 14.1902 21.1795 15.7415 20.2614 17.1114C19.3433 18.4814 18.1412 19.6378 16.7368 20.5022C14.7772 21.7097 12.3921 21.85 10.0898 21.85H0.0273438C0.628794 9.68185 10.6832 0 22.9997 0Z" fill="#5F6FFF"/>
 <path d="M0 27.15H10.0901C12.3924 27.15 14.7775 27.2903 16.7371 28.4978C18.2689 29.4417 19.5583 30.7311 20.5022 32.2629C21.7097 34.2225 21.85 36.6076 21.85 38.9099V49H6.9C5.07001 49 3.31496 48.273 2.02096 46.979C0.726962 45.685 0 43.93 0 42.1L0 27.15ZM46 5.3C46 5.91 45.7577 6.49501 45.3263 6.92635C44.895 7.35768 44.31 7.6 43.7 7.6C43.09 7.6 42.505 7.35768 42.0737 6.92635C41.6423 6.49501 41.4 5.91 41.4 5.3C41.4 4.69 41.6423 4.10499 42.0737 3.67365C42.505 3.24232 43.09 3 43.7 3C44.31 3 44.895 3.24232 45.3263 3.67365C45.7577 4.10499 46 4.69 46 5.3Z" fill="#5F6FFF"/>
 <text x="55" y="35" font-family="Arial, sans-serif" font-size="32" fill="#000B6D">Medicare</text>
</svg>
