<?xml version="1.0" encoding="UTF-8" standalone="no" ?>
<!DOCTYPE svg PUBLIC "-//W3C//DTD SVG 1.1//EN" "http://www.w3.org/Graphics/SVG/1.1/DTD/svg11.dtd">
<svg xmlns="http://www.w3.org/2000/svg" xmlns:xlink="http://www.w3.org/1999/xlink" version="1.1" width="1080" height="1080" viewBox="0 0 1080 1080" xml:space="preserve">
<desc>Created with Fabric.js 5.2.4</desc>
<defs>
</defs>
<rect x="0" y="0" width="100%" height="100%" fill="transparent"></rect>
<g transform="matrix(1 0 0 1 540 540)" id="fbcbbd87-2b7c-4342-955e-03d8e5340ec5"  >
<rect style="stroke: none; stroke-width: 1; stroke-dasharray: none; stroke-linecap: butt; stroke-dashoffset: 0; stroke-linejoin: miter; stroke-miterlimit: 4; fill: rgb(255,255,255); fill-rule: nonzero; opacity: 1; visibility: hidden;" vector-effect="non-scaling-stroke"  x="-540" y="-540" rx="0" ry="0" width="1080" height="1080" />
</g>
<g transform="matrix(1 0 0 1 540 540)" id="9a0a79ab-15eb-4670-8890-dd401a450ecd"  >
</g>
<g transform="matrix(1 0 0 1 559.18 527.67)" style="" id="d6d2ed93-2070-4b74-b402-55b3bd982d3f"  >
		<text xml:space="preserve" font-family="Alegreya" font-size="38" font-style="normal" font-weight="700" style="stroke: none; stroke-width: 1; stroke-dasharray: none; stroke-linecap: butt; stroke-dashoffset: 0; stroke-linejoin: miter; stroke-miterlimit: 4; fill: rgb(0,0,0); fill-rule: nonzero; opacity: 1; white-space: pre;" ><tspan x="-73.8" y="11.94" >Medicare</tspan></text>
</g>
<g transform="matrix(1 0 0 1 455.36 524.43)"  >
<path style="stroke: none; stroke-width: 1; stroke-dasharray: none; stroke-linecap: butt; stroke-dashoffset: 0; stroke-linejoin: miter; stroke-miterlimit: 4; fill: rgb(95,111,255); fill-rule: nonzero; opacity: 1;" vector-effect="non-scaling-stroke"  transform=" translate(-23.01, -23)" d="M 22.9997 0 C 35.7026 0 45.9997 10.2971 45.9997 23 L 45.9997 39.1 C 45.9997 40.93 45.2728 42.685 43.9788 43.979 C 42.6848 45.273 40.9297 46 39.0997 46 L 24.1497 46 L 24.1497 35.9099 C 24.1497 33.6076 24.29 31.2225 25.4975 29.2629 C 26.362 27.8586 27.5185 26.6566 28.8884 25.7385 C 30.2583 24.8204 31.8096 24.2077 33.4371 23.9419 L 33.8776 23.8706 C 34.0592 23.8085 34.2168 23.6912 34.3284 23.5351 C 34.44 23.379 34.5 23.1919 34.5 23 C 34.5 22.8081 34.44 22.621 34.3284 22.4649 C 34.2168 22.3088 34.0592 22.1915 33.8776 22.1294 L 33.4371 22.0581 C 31.0591 21.6697 28.8632 20.5441 27.1594 18.8403 C 25.4556 17.1365 24.3301 14.9406 23.9416 12.5626 L 23.8703 12.1222 C 23.8082 11.9406 23.6909 11.7829 23.5348 11.6713 C 23.3787 11.5597 23.1916 11.4997 22.9997 11.4997 C 22.8078 11.4997 22.6208 11.5597 22.4647 11.6713 C 22.3086 11.7829 22.1913 11.9406 22.1292 12.1222 L 22.0579 12.5626 C 21.7922 14.1902 21.1795 15.7415 20.2614 17.1114 C 19.3433 18.4814 18.1412 19.6378 16.7368 20.5022 C 14.7772 21.7097 12.3921 21.85 10.0898 21.85 L 0.0273438 21.85 C 0.628794 9.68185 10.6832 0 22.9997 0 Z" stroke-linecap="round" />
</g>
<g transform="matrix(1 0 0 1 455.34 524.43)"  >
<path style="stroke: none; stroke-width: 1; stroke-dasharray: none; stroke-linecap: butt; stroke-dashoffset: 0; stroke-linejoin: miter; stroke-miterlimit: 4; fill: rgb(95,111,255); fill-rule: nonzero; opacity: 1;" vector-effect="non-scaling-stroke"  transform=" translate(-23, -23)" d="M 0 24.15 L 10.0901 24.15 C 12.3924 24.15 14.7775 24.2903 16.7371 25.4978 C 18.2689 26.4417 19.5583 27.7311 20.5022 29.2629 C 21.7097 31.2225 21.85 33.6076 21.85 35.9099 L 21.85 46 L 6.9 46 C 5.07001 46 3.31496 45.273 2.02096 43.979 C 0.726962 42.685 0 40.93 0 39.1 L 0 24.15 Z M 46 2.3 C 46 2.91 45.7577 3.49501 45.3263 3.92635 C 44.895 4.35768 44.31 4.6 43.7 4.6 C 43.09 4.6 42.505 4.35768 42.0737 3.92635 C 41.6423 3.49501 41.4 2.91 41.4 2.3 C 41.4 1.69 41.6423 1.10499 42.0737 0.673654 C 42.505 0.242321 43.09 0 43.7 0 C 44.31 0 44.895 0.242321 45.3263 0.673654 C 45.7577 1.10499 46 1.69 46 2.3 Z" stroke-linecap="round" />
</g>
</svg>